<mxfile host="app.diagrams.net" modified="2024-01-02T06:57:25.586Z" agent="Mozilla/5.0 (Macintosh; Intel Mac OS X 10_15_7) AppleWebKit/537.36 (KHTML, like Gecko) Chrome/120.0.0.0 Safari/537.36" etag="D1OEIPetEzz3jTtcdHdw" version="22.1.16" type="github">
  <diagram name="第 1 页" id="SCu4y2It_1t6rP-ZVscL">
    <mxGraphModel dx="1228" dy="834" grid="1" gridSize="10" guides="1" tooltips="1" connect="1" arrows="1" fold="1" page="1" pageScale="1" pageWidth="827" pageHeight="1169" math="0" shadow="0">
      <root>
        <mxCell id="0" />
        <mxCell id="1" parent="0" />
        <mxCell id="-TAhH72Yyuid5pOQjHjT-1" style="edgeStyle=orthogonalEdgeStyle;rounded=0;orthogonalLoop=1;jettySize=auto;html=1;exitX=0.5;exitY=1;exitDx=0;exitDy=0;" edge="1" parent="1" source="-TAhH72Yyuid5pOQjHjT-2" target="-TAhH72Yyuid5pOQjHjT-5">
          <mxGeometry relative="1" as="geometry" />
        </mxCell>
        <mxCell id="-TAhH72Yyuid5pOQjHjT-2" value="注册应用" style="rounded=1;whiteSpace=wrap;html=1;" vertex="1" parent="1">
          <mxGeometry x="65" y="70" width="100" height="40" as="geometry" />
        </mxCell>
        <mxCell id="-TAhH72Yyuid5pOQjHjT-3" value="创建审批任务流" style="text;html=1;strokeColor=none;fillColor=none;align=center;verticalAlign=middle;whiteSpace=wrap;rounded=0;fontStyle=1;fontSize=14;" vertex="1" parent="1">
          <mxGeometry x="55" y="10" width="110" height="30" as="geometry" />
        </mxCell>
        <mxCell id="-TAhH72Yyuid5pOQjHjT-4" style="edgeStyle=orthogonalEdgeStyle;rounded=0;orthogonalLoop=1;jettySize=auto;html=1;exitX=0.5;exitY=1;exitDx=0;exitDy=0;entryX=0.5;entryY=0;entryDx=0;entryDy=0;" edge="1" parent="1" source="-TAhH72Yyuid5pOQjHjT-5" target="-TAhH72Yyuid5pOQjHjT-8">
          <mxGeometry relative="1" as="geometry" />
        </mxCell>
        <mxCell id="-TAhH72Yyuid5pOQjHjT-5" value="创建审批任务" style="rounded=1;whiteSpace=wrap;html=1;" vertex="1" parent="1">
          <mxGeometry x="65" y="150" width="100" height="40" as="geometry" />
        </mxCell>
        <mxCell id="-TAhH72Yyuid5pOQjHjT-6" style="edgeStyle=orthogonalEdgeStyle;rounded=0;orthogonalLoop=1;jettySize=auto;html=1;exitX=0.5;exitY=1;exitDx=0;exitDy=0;entryX=0.5;entryY=0;entryDx=0;entryDy=0;" edge="1" parent="1" source="-TAhH72Yyuid5pOQjHjT-8" target="-TAhH72Yyuid5pOQjHjT-10">
          <mxGeometry relative="1" as="geometry" />
        </mxCell>
        <mxCell id="-TAhH72Yyuid5pOQjHjT-7" style="edgeStyle=orthogonalEdgeStyle;rounded=0;orthogonalLoop=1;jettySize=auto;html=1;exitX=1;exitY=0.5;exitDx=0;exitDy=0;entryX=0;entryY=0.5;entryDx=0;entryDy=0;" edge="1" parent="1" source="-TAhH72Yyuid5pOQjHjT-8" target="-TAhH72Yyuid5pOQjHjT-31">
          <mxGeometry relative="1" as="geometry" />
        </mxCell>
        <mxCell id="-TAhH72Yyuid5pOQjHjT-8" value="是否有审批中任务" style="rhombus;whiteSpace=wrap;html=1;" vertex="1" parent="1">
          <mxGeometry x="60" y="230" width="110" height="50" as="geometry" />
        </mxCell>
        <mxCell id="-TAhH72Yyuid5pOQjHjT-9" style="edgeStyle=orthogonalEdgeStyle;rounded=0;orthogonalLoop=1;jettySize=auto;html=1;exitX=0.5;exitY=1;exitDx=0;exitDy=0;entryX=0.5;entryY=0;entryDx=0;entryDy=0;" edge="1" parent="1" source="-TAhH72Yyuid5pOQjHjT-10" target="-TAhH72Yyuid5pOQjHjT-32">
          <mxGeometry relative="1" as="geometry" />
        </mxCell>
        <mxCell id="-TAhH72Yyuid5pOQjHjT-10" value="生成businessKey" style="rounded=1;whiteSpace=wrap;html=1;" vertex="1" parent="1">
          <mxGeometry x="65" y="320" width="100" height="40" as="geometry" />
        </mxCell>
        <mxCell id="-TAhH72Yyuid5pOQjHjT-11" value="accessSecret" style="text;html=1;strokeColor=none;fillColor=none;align=center;verticalAlign=middle;whiteSpace=wrap;rounded=0;" vertex="1" parent="1">
          <mxGeometry x="180" y="75" width="90" height="30" as="geometry" />
        </mxCell>
        <mxCell id="-TAhH72Yyuid5pOQjHjT-12" value="Application" style="swimlane;fontStyle=0;childLayout=stackLayout;horizontal=1;startSize=30;horizontalStack=0;resizeParent=1;resizeParentMax=0;resizeLast=0;collapsible=1;marginBottom=0;whiteSpace=wrap;html=1;" vertex="1" parent="1">
          <mxGeometry x="440" y="60" width="140" height="240" as="geometry" />
        </mxCell>
        <mxCell id="-TAhH72Yyuid5pOQjHjT-13" value="name" style="text;strokeColor=none;fillColor=none;align=left;verticalAlign=middle;spacingLeft=4;spacingRight=4;overflow=hidden;points=[[0,0.5],[1,0.5]];portConstraint=eastwest;rotatable=0;whiteSpace=wrap;html=1;" vertex="1" parent="-TAhH72Yyuid5pOQjHjT-12">
          <mxGeometry y="30" width="140" height="30" as="geometry" />
        </mxCell>
        <mxCell id="-TAhH72Yyuid5pOQjHjT-14" value="displayName" style="text;strokeColor=none;fillColor=none;align=left;verticalAlign=middle;spacingLeft=4;spacingRight=4;overflow=hidden;points=[[0,0.5],[1,0.5]];portConstraint=eastwest;rotatable=0;whiteSpace=wrap;html=1;" vertex="1" parent="-TAhH72Yyuid5pOQjHjT-12">
          <mxGeometry y="60" width="140" height="30" as="geometry" />
        </mxCell>
        <mxCell id="-TAhH72Yyuid5pOQjHjT-15" value="accessSecret" style="text;strokeColor=none;fillColor=none;align=left;verticalAlign=middle;spacingLeft=4;spacingRight=4;overflow=hidden;points=[[0,0.5],[1,0.5]];portConstraint=eastwest;rotatable=0;whiteSpace=wrap;html=1;" vertex="1" parent="-TAhH72Yyuid5pOQjHjT-12">
          <mxGeometry y="90" width="140" height="30" as="geometry" />
        </mxCell>
        <mxCell id="-TAhH72Yyuid5pOQjHjT-16" value="pageUrl" style="text;strokeColor=none;fillColor=none;align=left;verticalAlign=middle;spacingLeft=4;spacingRight=4;overflow=hidden;points=[[0,0.5],[1,0.5]];portConstraint=eastwest;rotatable=0;whiteSpace=wrap;html=1;" vertex="1" parent="-TAhH72Yyuid5pOQjHjT-12">
          <mxGeometry y="120" width="140" height="30" as="geometry" />
        </mxCell>
        <mxCell id="-TAhH72Yyuid5pOQjHjT-17" value="contentUrl" style="text;strokeColor=none;fillColor=none;align=left;verticalAlign=middle;spacingLeft=4;spacingRight=4;overflow=hidden;points=[[0,0.5],[1,0.5]];portConstraint=eastwest;rotatable=0;whiteSpace=wrap;html=1;" vertex="1" parent="-TAhH72Yyuid5pOQjHjT-12">
          <mxGeometry y="150" width="140" height="30" as="geometry" />
        </mxCell>
        <mxCell id="-TAhH72Yyuid5pOQjHjT-18" value="resultUrl" style="text;strokeColor=none;fillColor=none;align=left;verticalAlign=middle;spacingLeft=4;spacingRight=4;overflow=hidden;points=[[0,0.5],[1,0.5]];portConstraint=eastwest;rotatable=0;whiteSpace=wrap;html=1;" vertex="1" parent="-TAhH72Yyuid5pOQjHjT-12">
          <mxGeometry y="180" width="140" height="30" as="geometry" />
        </mxCell>
        <mxCell id="-TAhH72Yyuid5pOQjHjT-19" value="creator" style="text;strokeColor=none;fillColor=none;align=left;verticalAlign=middle;spacingLeft=4;spacingRight=4;overflow=hidden;points=[[0,0.5],[1,0.5]];portConstraint=eastwest;rotatable=0;whiteSpace=wrap;html=1;" vertex="1" parent="-TAhH72Yyuid5pOQjHjT-12">
          <mxGeometry y="210" width="140" height="30" as="geometry" />
        </mxCell>
        <mxCell id="-TAhH72Yyuid5pOQjHjT-20" value="Process" style="swimlane;fontStyle=0;childLayout=stackLayout;horizontal=1;startSize=30;horizontalStack=0;resizeParent=1;resizeParentMax=0;resizeLast=0;collapsible=1;marginBottom=0;whiteSpace=wrap;html=1;" vertex="1" parent="1">
          <mxGeometry x="600" y="60" width="140" height="270" as="geometry" />
        </mxCell>
        <mxCell id="-TAhH72Yyuid5pOQjHjT-21" value="appId" style="text;strokeColor=none;fillColor=none;align=left;verticalAlign=middle;spacingLeft=4;spacingRight=4;overflow=hidden;points=[[0,0.5],[1,0.5]];portConstraint=eastwest;rotatable=0;whiteSpace=wrap;html=1;" vertex="1" parent="-TAhH72Yyuid5pOQjHjT-20">
          <mxGeometry y="30" width="140" height="30" as="geometry" />
        </mxCell>
        <mxCell id="-TAhH72Yyuid5pOQjHjT-22" value="businessKey" style="text;strokeColor=none;fillColor=none;align=left;verticalAlign=middle;spacingLeft=4;spacingRight=4;overflow=hidden;points=[[0,0.5],[1,0.5]];portConstraint=eastwest;rotatable=0;whiteSpace=wrap;html=1;" vertex="1" parent="-TAhH72Yyuid5pOQjHjT-20">
          <mxGeometry y="60" width="140" height="30" as="geometry" />
        </mxCell>
        <mxCell id="-TAhH72Yyuid5pOQjHjT-23" value="content" style="text;strokeColor=none;fillColor=none;align=left;verticalAlign=middle;spacingLeft=4;spacingRight=4;overflow=hidden;points=[[0,0.5],[1,0.5]];portConstraint=eastwest;rotatable=0;whiteSpace=wrap;html=1;" vertex="1" parent="-TAhH72Yyuid5pOQjHjT-20">
          <mxGeometry y="90" width="140" height="30" as="geometry" />
        </mxCell>
        <mxCell id="-TAhH72Yyuid5pOQjHjT-24" value="recommend" style="text;strokeColor=none;fillColor=none;align=left;verticalAlign=middle;spacingLeft=4;spacingRight=4;overflow=hidden;points=[[0,0.5],[1,0.5]];portConstraint=eastwest;rotatable=0;whiteSpace=wrap;html=1;" vertex="1" parent="-TAhH72Yyuid5pOQjHjT-20">
          <mxGeometry y="120" width="140" height="30" as="geometry" />
        </mxCell>
        <mxCell id="-TAhH72Yyuid5pOQjHjT-25" value="status" style="text;strokeColor=none;fillColor=none;align=left;verticalAlign=middle;spacingLeft=4;spacingRight=4;overflow=hidden;points=[[0,0.5],[1,0.5]];portConstraint=eastwest;rotatable=0;whiteSpace=wrap;html=1;" vertex="1" parent="-TAhH72Yyuid5pOQjHjT-20">
          <mxGeometry y="150" width="140" height="30" as="geometry" />
        </mxCell>
        <mxCell id="-TAhH72Yyuid5pOQjHjT-26" value="applier" style="text;strokeColor=none;fillColor=none;align=left;verticalAlign=middle;spacingLeft=4;spacingRight=4;overflow=hidden;points=[[0,0.5],[1,0.5]];portConstraint=eastwest;rotatable=0;whiteSpace=wrap;html=1;" vertex="1" parent="-TAhH72Yyuid5pOQjHjT-20">
          <mxGeometry y="180" width="140" height="30" as="geometry" />
        </mxCell>
        <mxCell id="-TAhH72Yyuid5pOQjHjT-27" value="approver" style="text;strokeColor=none;fillColor=none;align=left;verticalAlign=middle;spacingLeft=4;spacingRight=4;overflow=hidden;points=[[0,0.5],[1,0.5]];portConstraint=eastwest;rotatable=0;whiteSpace=wrap;html=1;" vertex="1" parent="-TAhH72Yyuid5pOQjHjT-20">
          <mxGeometry y="210" width="140" height="30" as="geometry" />
        </mxCell>
        <mxCell id="-TAhH72Yyuid5pOQjHjT-28" value="assignees" style="text;strokeColor=none;fillColor=none;align=left;verticalAlign=middle;spacingLeft=4;spacingRight=4;overflow=hidden;points=[[0,0.5],[1,0.5]];portConstraint=eastwest;rotatable=0;whiteSpace=wrap;html=1;" vertex="1" parent="-TAhH72Yyuid5pOQjHjT-20">
          <mxGeometry y="240" width="140" height="30" as="geometry" />
        </mxCell>
        <mxCell id="-TAhH72Yyuid5pOQjHjT-29" value="&lt;div style=&quot;color: rgb(171, 178, 191); background-color: rgb(40, 44, 52); font-family: Menlo, Monaco, &amp;quot;Courier New&amp;quot;, monospace; font-weight: normal; font-size: 12px; line-height: 18px;&quot;&gt;&lt;div&gt;&lt;span style=&quot;color: #5c6370;font-style: italic;&quot;&gt;// 状态枚举&lt;/span&gt;&lt;/div&gt;&lt;div&gt;&lt;span style=&quot;color: #c678dd;&quot;&gt;enum&lt;/span&gt;&lt;span style=&quot;color: #abb2bf;&quot;&gt; &lt;/span&gt;&lt;span style=&quot;color: #e5c07b;&quot;&gt;StatusEnum&lt;/span&gt;&lt;span style=&quot;color: #abb2bf;&quot;&gt; {&lt;/span&gt;&lt;/div&gt;&lt;div&gt;&lt;span style=&quot;color: #abb2bf;&quot;&gt;&lt;/span&gt;&lt;span style=&quot;color: #e06c75;&quot;&gt;&amp;nbsp; UNSUBMITTED&lt;/span&gt;&lt;span style=&quot;color: #abb2bf;&quot;&gt; &lt;/span&gt;&lt;span style=&quot;color: #5c6370;font-style: italic;&quot;&gt;// 待提交&lt;/span&gt;&lt;/div&gt;&lt;div&gt;&lt;span style=&quot;color: #abb2bf;&quot;&gt;&lt;/span&gt;&lt;span style=&quot;color: #e06c75;&quot;&gt;&amp;nbsp; PENDING&lt;/span&gt;&lt;span style=&quot;color: #abb2bf;&quot;&gt; &lt;/span&gt;&lt;span style=&quot;color: #5c6370;font-style: italic;&quot;&gt;// 审批中&lt;/span&gt;&lt;/div&gt;&lt;div&gt;&lt;span style=&quot;color: #abb2bf;&quot;&gt;&lt;/span&gt;&lt;span style=&quot;color: #e06c75;&quot;&gt;&amp;nbsp; COMPLETED&lt;/span&gt;&lt;span style=&quot;color: #abb2bf;&quot;&gt; &lt;/span&gt;&lt;span style=&quot;color: #5c6370;font-style: italic;&quot;&gt;// 已通过&lt;/span&gt;&lt;/div&gt;&lt;div&gt;&lt;span style=&quot;color: #abb2bf;&quot;&gt;&lt;/span&gt;&lt;span style=&quot;color: #e06c75;&quot;&gt;&amp;nbsp; REVOKED&lt;/span&gt;&lt;span style=&quot;color: #abb2bf;&quot;&gt; &lt;/span&gt;&lt;span style=&quot;color: #5c6370;font-style: italic;&quot;&gt;// 已撤销&lt;/span&gt;&lt;/div&gt;&lt;div&gt;&lt;span style=&quot;color: #abb2bf;&quot;&gt;&lt;/span&gt;&lt;span style=&quot;color: #e06c75;&quot;&gt;&amp;nbsp; REJECTED&lt;/span&gt;&lt;span style=&quot;color: #abb2bf;&quot;&gt; &lt;/span&gt;&lt;span style=&quot;color: #5c6370;font-style: italic;&quot;&gt;// 已驳回&lt;/span&gt;&lt;/div&gt;&lt;div&gt;&lt;span style=&quot;color: #abb2bf;&quot;&gt;&lt;/span&gt;&lt;span style=&quot;color: #e06c75;&quot;&gt;&amp;nbsp; TERMINATED&lt;/span&gt;&lt;span style=&quot;color: #abb2bf;&quot;&gt; &lt;/span&gt;&lt;span style=&quot;color: #5c6370;font-style: italic;&quot;&gt;// 已终止&lt;/span&gt;&lt;/div&gt;&lt;div&gt;&lt;span style=&quot;color: #abb2bf;&quot;&gt;}&lt;/span&gt;&lt;/div&gt;&lt;/div&gt;" style="text;whiteSpace=wrap;html=1;" vertex="1" parent="1">
          <mxGeometry x="600" y="350" width="180" height="190" as="geometry" />
        </mxCell>
        <mxCell id="-TAhH72Yyuid5pOQjHjT-30" style="edgeStyle=orthogonalEdgeStyle;rounded=0;orthogonalLoop=1;jettySize=auto;html=1;exitX=0.5;exitY=1;exitDx=0;exitDy=0;entryX=1;entryY=0.5;entryDx=0;entryDy=0;" edge="1" parent="1" source="-TAhH72Yyuid5pOQjHjT-31" target="-TAhH72Yyuid5pOQjHjT-10">
          <mxGeometry relative="1" as="geometry" />
        </mxCell>
        <mxCell id="-TAhH72Yyuid5pOQjHjT-31" value="&lt;font color=&quot;#990000&quot;&gt;删除BPM任务&lt;/font&gt;&lt;br&gt;更新Process状态为TERMINATED" style="rounded=1;whiteSpace=wrap;html=1;" vertex="1" parent="1">
          <mxGeometry x="210" y="235" width="200" height="40" as="geometry" />
        </mxCell>
        <mxCell id="-TAhH72Yyuid5pOQjHjT-32" value="创建审批任务" style="rounded=1;whiteSpace=wrap;html=1;" vertex="1" parent="1">
          <mxGeometry x="65" y="400" width="100" height="40" as="geometry" />
        </mxCell>
        <mxCell id="-TAhH72Yyuid5pOQjHjT-33" style="edgeStyle=orthogonalEdgeStyle;rounded=0;orthogonalLoop=1;jettySize=auto;html=1;exitX=0.5;exitY=1;exitDx=0;exitDy=0;entryX=0.5;entryY=0;entryDx=0;entryDy=0;" edge="1" parent="1" source="-TAhH72Yyuid5pOQjHjT-34" target="-TAhH72Yyuid5pOQjHjT-37">
          <mxGeometry relative="1" as="geometry" />
        </mxCell>
        <mxCell id="-TAhH72Yyuid5pOQjHjT-34" value="找到状态为UNSUBMITTED的应用" style="rounded=1;whiteSpace=wrap;html=1;" vertex="1" parent="1">
          <mxGeometry x="55" y="610" width="145" height="40" as="geometry" />
        </mxCell>
        <mxCell id="-TAhH72Yyuid5pOQjHjT-35" value="发起BPM审批任务" style="text;html=1;strokeColor=none;fillColor=none;align=center;verticalAlign=middle;whiteSpace=wrap;rounded=0;fontStyle=1;fontSize=14;" vertex="1" parent="1">
          <mxGeometry x="50" y="560" width="130" height="30" as="geometry" />
        </mxCell>
        <mxCell id="-TAhH72Yyuid5pOQjHjT-36" style="edgeStyle=orthogonalEdgeStyle;rounded=0;orthogonalLoop=1;jettySize=auto;html=1;exitX=0.5;exitY=1;exitDx=0;exitDy=0;entryX=0.5;entryY=0;entryDx=0;entryDy=0;" edge="1" parent="1" source="-TAhH72Yyuid5pOQjHjT-37" target="-TAhH72Yyuid5pOQjHjT-38">
          <mxGeometry relative="1" as="geometry" />
        </mxCell>
        <mxCell id="-TAhH72Yyuid5pOQjHjT-37" value="发起BPM审批" style="rounded=1;whiteSpace=wrap;html=1;" vertex="1" parent="1">
          <mxGeometry x="55" y="690" width="145" height="40" as="geometry" />
        </mxCell>
        <mxCell id="-TAhH72Yyuid5pOQjHjT-38" value="更新审批流状态为PENDING" style="rounded=1;whiteSpace=wrap;html=1;" vertex="1" parent="1">
          <mxGeometry x="55" y="774" width="145" height="40" as="geometry" />
        </mxCell>
        <mxCell id="-TAhH72Yyuid5pOQjHjT-39" value="BPM方" style="text;html=1;strokeColor=none;fillColor=none;align=center;verticalAlign=middle;whiteSpace=wrap;rounded=0;fontStyle=1;fontSize=14;" vertex="1" parent="1">
          <mxGeometry x="320" y="560" width="130" height="30" as="geometry" />
        </mxCell>
        <mxCell id="-TAhH72Yyuid5pOQjHjT-40" value="BPM获取卡片内容" style="rounded=1;whiteSpace=wrap;html=1;" vertex="1" parent="1">
          <mxGeometry x="320" y="690" width="145" height="40" as="geometry" />
        </mxCell>
        <mxCell id="-TAhH72Yyuid5pOQjHjT-41" value="应用服务端" style="text;html=1;strokeColor=none;fillColor=none;align=center;verticalAlign=middle;whiteSpace=wrap;rounded=0;fontStyle=1;fontSize=14;" vertex="1" parent="1">
          <mxGeometry x="580" y="560" width="130" height="30" as="geometry" />
        </mxCell>
        <mxCell id="-TAhH72Yyuid5pOQjHjT-42" value="卡片内容数据结构" style="rounded=1;whiteSpace=wrap;html=1;" vertex="1" parent="1">
          <mxGeometry x="572.5" y="690" width="145" height="40" as="geometry" />
        </mxCell>
        <mxCell id="-TAhH72Yyuid5pOQjHjT-43" value="" style="shape=flexArrow;endArrow=classic;html=1;rounded=0;" edge="1" parent="1">
          <mxGeometry width="50" height="50" relative="1" as="geometry">
            <mxPoint x="472.5" y="889.5" as="sourcePoint" />
            <mxPoint x="572.5" y="889.5" as="targetPoint" />
          </mxGeometry>
        </mxCell>
        <mxCell id="-TAhH72Yyuid5pOQjHjT-44" value="" style="shape=flexArrow;endArrow=classic;html=1;rounded=0;" edge="1" parent="1">
          <mxGeometry width="50" height="50" relative="1" as="geometry">
            <mxPoint x="566" y="710" as="sourcePoint" />
            <mxPoint x="476" y="710" as="targetPoint" />
          </mxGeometry>
        </mxCell>
        <mxCell id="-TAhH72Yyuid5pOQjHjT-45" value="DC展示交互式卡片" style="rounded=1;whiteSpace=wrap;html=1;" vertex="1" parent="1">
          <mxGeometry x="320" y="780" width="145" height="40" as="geometry" />
        </mxCell>
        <mxCell id="-TAhH72Yyuid5pOQjHjT-46" value="" style="shape=flexArrow;endArrow=classic;html=1;rounded=0;entryX=0.407;entryY=-0.125;entryDx=0;entryDy=0;entryPerimeter=0;" edge="1" parent="1">
          <mxGeometry width="50" height="50" relative="1" as="geometry">
            <mxPoint x="396" y="740" as="sourcePoint" />
            <mxPoint x="396.0150000000001" y="775" as="targetPoint" />
          </mxGeometry>
        </mxCell>
        <mxCell id="-TAhH72Yyuid5pOQjHjT-47" value="卡片操作" style="rounded=1;whiteSpace=wrap;html=1;" vertex="1" parent="1">
          <mxGeometry x="320" y="870" width="145" height="40" as="geometry" />
        </mxCell>
        <mxCell id="-TAhH72Yyuid5pOQjHjT-48" value="" style="shape=flexArrow;endArrow=classic;html=1;rounded=0;entryX=0.407;entryY=-0.125;entryDx=0;entryDy=0;entryPerimeter=0;" edge="1" parent="1">
          <mxGeometry width="50" height="50" relative="1" as="geometry">
            <mxPoint x="396" y="830" as="sourcePoint" />
            <mxPoint x="396.0150000000001" y="865" as="targetPoint" />
          </mxGeometry>
        </mxCell>
        <mxCell id="-TAhH72Yyuid5pOQjHjT-49" value="传递操作结果" style="rounded=1;whiteSpace=wrap;html=1;" vertex="1" parent="1">
          <mxGeometry x="576.5" y="870" width="145" height="40" as="geometry" />
        </mxCell>
        <mxCell id="-TAhH72Yyuid5pOQjHjT-50" value="" style="shape=flexArrow;endArrow=classic;html=1;rounded=0;" edge="1" parent="1">
          <mxGeometry width="50" height="50" relative="1" as="geometry">
            <mxPoint x="219" y="720" as="sourcePoint" />
            <mxPoint x="319" y="720" as="targetPoint" />
          </mxGeometry>
        </mxCell>
        <mxCell id="-TAhH72Yyuid5pOQjHjT-51" value="根据businessKey&lt;br&gt;获取业务状态" style="rounded=1;whiteSpace=wrap;html=1;" vertex="1" parent="1">
          <mxGeometry x="320" y="1000" width="145" height="40" as="geometry" />
        </mxCell>
        <mxCell id="-TAhH72Yyuid5pOQjHjT-52" value="BPM与业务状态同步兜底" style="text;html=1;strokeColor=none;fillColor=none;align=center;verticalAlign=middle;whiteSpace=wrap;rounded=0;fontStyle=1;fontSize=14;" vertex="1" parent="1">
          <mxGeometry x="307.5" y="960" width="170" height="30" as="geometry" />
        </mxCell>
        <mxCell id="-TAhH72Yyuid5pOQjHjT-53" value="业务流程状态" style="rounded=1;whiteSpace=wrap;html=1;" vertex="1" parent="1">
          <mxGeometry x="580" y="1000" width="145" height="40" as="geometry" />
        </mxCell>
        <mxCell id="-TAhH72Yyuid5pOQjHjT-54" value="" style="shape=flexArrow;endArrow=classic;html=1;rounded=0;" edge="1" parent="1">
          <mxGeometry width="50" height="50" relative="1" as="geometry">
            <mxPoint x="469" y="1020" as="sourcePoint" />
            <mxPoint x="574" y="1020" as="targetPoint" />
          </mxGeometry>
        </mxCell>
        <mxCell id="-TAhH72Yyuid5pOQjHjT-55" value="更新BPM状态" style="rounded=1;whiteSpace=wrap;html=1;" vertex="1" parent="1">
          <mxGeometry x="320" y="1080" width="145" height="40" as="geometry" />
        </mxCell>
        <mxCell id="-TAhH72Yyuid5pOQjHjT-56" value="业务PENDING状态" style="rounded=1;whiteSpace=wrap;html=1;" vertex="1" parent="1">
          <mxGeometry x="580" y="1080" width="145" height="40" as="geometry" />
        </mxCell>
        <mxCell id="-TAhH72Yyuid5pOQjHjT-57" value="" style="shape=flexArrow;endArrow=classic;html=1;rounded=0;" edge="1" parent="1">
          <mxGeometry width="50" height="50" relative="1" as="geometry">
            <mxPoint x="572.5" y="1100" as="sourcePoint" />
            <mxPoint x="470" y="1100" as="targetPoint" />
          </mxGeometry>
        </mxCell>
        <mxCell id="-TAhH72Yyuid5pOQjHjT-58" value="" style="shape=flexArrow;endArrow=classic;html=1;rounded=0;endWidth=8;endSize=4;" edge="1" parent="1">
          <mxGeometry width="50" height="50" relative="1" as="geometry">
            <mxPoint x="650" y="1046" as="sourcePoint" />
            <mxPoint x="650" y="1071" as="targetPoint" />
          </mxGeometry>
        </mxCell>
      </root>
    </mxGraphModel>
  </diagram>
</mxfile>
